<?xml version="1.0" encoding="UTF-8"?>
<!DOCTYPE svg PUBLIC "-//W3C//DTD SVG 1.1//EN" "http://www.w3.org/Graphics/SVG/1.1/DTD/svg11.dtd">
<svg xmlns="http://www.w3.org/2000/svg" xmlns:xlink="http://www.w3.org/1999/xlink" version="1.1" width="61px" height="61px" viewBox="-0.5 -0.5 61 61"><defs/><g><rect x="0" y="0" width="60" height="60" rx="9" ry="9" fill="#1a1a1a" stroke="none" pointer-events="all"/><path d="M 5 50 L 5 10 L 15 10 L 15 50 Z" fill="#333333" stroke="none" transform="translate(0,30)scale(1,-1)translate(0,-30)" pointer-events="all"/><path d="M 5 50 L 25 10 L 35 10 L 15 50 Z" fill="#666666" stroke="none" transform="translate(0,30)scale(1,-1)translate(0,-30)" pointer-events="all"/><path d="M 25 50 L 25 10 L 35 10 L 35 50 Z" fill="#4d4d4d" stroke="none" transform="translate(0,30)scale(1,-1)translate(0,-30)" pointer-events="all"/><path d="M 25 50 L 45 10 L 55 10 L 35 50 Z" fill="#4169e1" stroke="none" pointer-events="all"/><path d="M 25 50 L 45 10 L 55 10 L 35 50 Z" fill="#7d7d7d" stroke="none" transform="translate(0,30)scale(1,-1)translate(0,-30)" pointer-events="all"/></g></svg>