<?xml version="1.0" encoding="UTF-8"?>
<!DOCTYPE svg PUBLIC "-//W3C//DTD SVG 1.1//EN" "http://www.w3.org/Graphics/SVG/1.1/DTD/svg11.dtd">
<svg xmlns="http://www.w3.org/2000/svg" xmlns:xlink="http://www.w3.org/1999/xlink" version="1.1" width="122px" height="122px" viewBox="-0.5 -0.5 122 122"><defs/><g><rect x="0" y="0" width="120" height="120" rx="18" ry="18" fill="none" stroke="none" pointer-events="all"/><path d="M 10 100 L 10 20 L 30 20 L 30 100 Z" fill="#333333" stroke="none" transform="translate(0,60)scale(1,-1)translate(0,-60)" pointer-events="all"/><path d="M 10 100 L 50 20 L 70 20 L 30 100 Z" fill="#666666" stroke="none" transform="translate(0,60)scale(1,-1)translate(0,-60)" pointer-events="all"/><path d="M 50 100 L 50 20 L 70 20 L 70 100 Z" fill="#4d4d4d" stroke="none" transform="translate(0,60)scale(1,-1)translate(0,-60)" pointer-events="all"/><path d="M 50 100 L 90 20 L 110 20 L 70 100 Z" fill="#4169e1" stroke="none" pointer-events="all"/><path d="M 50 100 L 90 20 L 110 20 L 70 100 Z" fill="#7d7d7d" stroke="none" transform="translate(0,60)scale(1,-1)translate(0,-60)" pointer-events="all"/></g></svg>